<svg xmlns="http://www.w3.org/2000/svg" width="12.31" height="11" viewBox="0 0 12.31 11">
  <defs>
    <style>
      .cls-1 {
        fill: #34404b;
        fill-rule: evenodd;
      }
    </style>
  </defs>
  <path id="google_" data-name="google +" class="cls-1" d="M1321.63,25h-3.22a2.761,2.761,0,0,0-2.8,2.5,2.389,2.389,0,0,0,2.45,2.475c0.1,0,.2,0,0.3-0.01a1.4,1.4,0,0,0-.17.637,1.373,1.373,0,0,0,.44.941c-0.18,0-.36.006-0.56,0.006-1.78,0-3.16,1.2-3.16,2.454,0,1.231,1.51,2,3.3,2,2.04,0,3.16-1.224,3.16-2.454a2.41,2.41,0,0,0-1.12-2.214,2.15,2.15,0,0,1-.85-1.06,1.131,1.131,0,0,1,.62-0.975,2.334,2.334,0,0,0,.91-1.779,2.066,2.066,0,0,0-1.04-1.968h1.02Zm-1.13,8.334a1.37,1.37,0,0,1,.04.351c0,0.994-.6,1.771-2.34,1.771a1.963,1.963,0,0,1-2.13-1.822,2.154,2.154,0,0,1,2.35-1.772A2.139,2.139,0,0,1,1320.5,33.334Zm-1.97-3.709a2.273,2.273,0,0,1-1.77-2.134c-0.14-1.153.42-2.035,1.25-2.009a2.227,2.227,0,0,1,1.76,2.1C1319.91,28.738,1319.35,29.651,1318.53,29.625Zm6.38-2.184V25h-0.77v2.441h-2.31v0.814h2.31V30.7h0.77V28.255h2.31V27.441h-2.31Z" transform="translate(-1314.91 -25)"/>
</svg>
