<svg xmlns="http://www.w3.org/2000/svg" width="10.84" height="11" viewBox="0 0 10.84 11">
  <defs>
    <style>
      .cls-1 {
        fill: #34404b;
        fill-rule: evenodd;
      }
    </style>
  </defs>
  <path id="instegram" class="cls-1" d="M1352.2,25h-7.26a1.818,1.818,0,0,0-1.8,1.826v7.348a1.819,1.819,0,0,0,1.8,1.826h7.26a1.819,1.819,0,0,0,1.8-1.826V26.826A1.818,1.818,0,0,0,1352.2,25Zm-5.58,4.812h3.9a1.967,1.967,0,0,1,.12.688,2.07,2.07,0,1,1-4.14,0A1.967,1.967,0,0,1,1346.62,29.812Zm6.02,0v4.124a0.682,0.682,0,0,1-.68.688h-6.78a0.682,0.682,0,0,1-.68-0.687V29.813h1.06a3.09,3.09,0,1,0,6.02,0h1.06Zm0-2.407a0.341,0.341,0,0,1-.34.344h-0.68a0.339,0.339,0,0,1-.33-0.344V26.719a0.339,0.339,0,0,1,.33-0.344h0.68a0.341,0.341,0,0,1,.34.344v0.688Z" transform="translate(-1343.16 -25)"/>
</svg>
